# xmcd
#
# Track frame offsets:
#	150
#	17573
#	35300
#	64154
#	78353
#	91746
#	105055
#	125309
#	151333
#	165351
#	179324
#	209804
#	223052
#	243753
#	262167
#	275672
#
# Disc length: 4109 seconds
#
# Revision: 6
# Processed by: cddbd v1.5.2PL0 Copyright (c) Steve Scherf et al.
# Submitted via: audiograbber 1.83.01
#
DISCID=cf100b10
DTITLE=Jean-Michel Jarre - Electronica 1 - The Time Machine
DYEAR=2015
DGENRE=Electronic
TTITLE0=Jean-Michel Jarre and Boys Noize - The Time Machine
TTITLE1=Jean-Michel Jarre and M83 - Glory
TTITLE2=Jean-Michel Jarre and Air - Close Your Eyes
TTITLE3=Jean-Michel Jarre and Vince Clarke - Automatic (Part 1)
TTITLE4=Jean-Michel Jarre and Vince Clarke - Automatic (Part 2)
TTITLE5=Jean-Michel Jarre and Little Boots - If....!
TTITLE6=Jean-Michel Jarre and Fuck Buttons - Immortals
TTITLE7=Jean-Michel Jarre and Moby - Suns Have Gone
TTITLE8=Jean-Michel Jarre and Gesaffelstein - Conquistador
TTITLE9=Jean-Michel Jarre and Pete Townshend - Travelator (Part 2)
TTITLE10=Jean-Michel Jarre and Tangerine Dream - Zero Gravity
TTITLE11=Jean-Michel Jarre and Laurie Anderson - Rely On Me
TTITLE12=Jean-Michel Jarre and Armin van Buuren - Stardust
TTITLE13=Jean-Michel Jarre and 3D (Massive Attack) - Watching You
TTITLE14=Jean-Michel Jarre and John Carpenter - A Question Of Blood
TTITLE15=Jean-Michel Jarre and Lang Lang - The Train and The River
EXTD=
EXTT0=
EXTT1=
EXTT2=
EXTT3=
EXTT4=
EXTT5=
EXTT6=
EXTT7=
EXTT8=
EXTT9=
EXTT10=
EXTT11=
EXTT12=
EXTT13=
EXTT14=
EXTT15=
PLAYORDER=
